<svg width="444" height="444" viewBox="0 0 444 444" fill="none" xmlns="http://www.w3.org/2000/svg">
<rect x="54.5" y="54.5" width="335" height="335" stroke="black" stroke-width="109"/>
<path d="M120.94 196V133H142.99L153.88 187.9H155.5L166.39 133H188.44V196H176.92V141.73H175.3L164.5 196H144.88L134.08 141.73H132.46V196H120.94ZM214.525 197.26C211.345 197.26 208.495 196.72 205.975 195.64C203.455 194.5 201.445 192.88 199.945 190.78C198.505 188.62 197.785 186.01 197.785 182.95C197.785 179.89 198.505 177.34 199.945 175.3C201.445 173.2 203.485 171.64 206.065 170.62C208.705 169.54 211.705 169 215.065 169H227.305V166.48C227.305 164.38 226.645 162.67 225.325 161.35C224.005 159.97 221.905 159.28 219.025 159.28C216.205 159.28 214.105 159.94 212.725 161.26C211.345 162.52 210.445 164.17 210.025 166.21L199.585 162.7C200.305 160.42 201.445 158.35 203.005 156.49C204.625 154.57 206.755 153.04 209.395 151.9C212.095 150.7 215.365 150.1 219.205 150.1C225.085 150.1 229.735 151.57 233.155 154.51C236.575 157.45 238.285 161.71 238.285 167.29V183.94C238.285 185.74 239.125 186.64 240.805 186.64H244.405V196H236.845C234.625 196 232.795 195.46 231.355 194.38C229.915 193.3 229.195 191.86 229.195 190.06V189.97H227.485C227.245 190.69 226.705 191.65 225.865 192.85C225.025 193.99 223.705 195.01 221.905 195.91C220.105 196.81 217.645 197.26 214.525 197.26ZM216.505 188.08C219.685 188.08 222.265 187.21 224.245 185.47C226.285 183.67 227.305 181.3 227.305 178.36V177.46H215.875C213.775 177.46 212.125 177.91 210.925 178.81C209.725 179.71 209.125 180.97 209.125 182.59C209.125 184.21 209.755 185.53 211.015 186.55C212.275 187.57 214.105 188.08 216.505 188.08ZM252.696 196V151.36H263.856V157.21H265.476C266.196 155.65 267.546 154.18 269.526 152.8C271.506 151.36 274.506 150.64 278.526 150.64C282.006 150.64 285.036 151.45 287.616 153.07C290.256 154.63 292.296 156.82 293.736 159.64C295.176 162.4 295.896 165.64 295.896 169.36V196H284.556V170.26C284.556 166.9 283.716 164.38 282.036 162.7C280.416 161.02 278.076 160.18 275.016 160.18C271.536 160.18 268.836 161.35 266.916 163.69C264.996 165.97 264.036 169.18 264.036 173.32V196H252.696ZM120.94 311V248H142.99L153.88 302.9H155.5L166.39 248H188.44V311H176.92V256.73H175.3L164.5 311H144.88L134.08 256.73H132.46V311H120.94ZM214.525 312.26C211.345 312.26 208.495 311.72 205.975 310.64C203.455 309.5 201.445 307.88 199.945 305.78C198.505 303.62 197.785 301.01 197.785 297.95C197.785 294.89 198.505 292.34 199.945 290.3C201.445 288.2 203.485 286.64 206.065 285.62C208.705 284.54 211.705 284 215.065 284H227.305V281.48C227.305 279.38 226.645 277.67 225.325 276.35C224.005 274.97 221.905 274.28 219.025 274.28C216.205 274.28 214.105 274.94 212.725 276.26C211.345 277.52 210.445 279.17 210.025 281.21L199.585 277.7C200.305 275.42 201.445 273.35 203.005 271.49C204.625 269.57 206.755 268.04 209.395 266.9C212.095 265.7 215.365 265.1 219.205 265.1C225.085 265.1 229.735 266.57 233.155 269.51C236.575 272.45 238.285 276.71 238.285 282.29V298.94C238.285 300.74 239.125 301.64 240.805 301.64H244.405V311H236.845C234.625 311 232.795 310.46 231.355 309.38C229.915 308.3 229.195 306.86 229.195 305.06V304.97H227.485C227.245 305.69 226.705 306.65 225.865 307.85C225.025 308.99 223.705 310.01 221.905 310.91C220.105 311.81 217.645 312.26 214.525 312.26ZM216.505 303.08C219.685 303.08 222.265 302.21 224.245 300.47C226.285 298.67 227.305 296.3 227.305 293.36V292.46H215.875C213.775 292.46 212.125 292.91 210.925 293.81C209.725 294.71 209.125 295.97 209.125 297.59C209.125 299.21 209.755 300.53 211.015 301.55C212.275 302.57 214.105 303.08 216.505 303.08ZM252.696 311V266.36H263.856V272.21H265.476C266.196 270.65 267.546 269.18 269.526 267.8C271.506 266.36 274.506 265.64 278.526 265.64C282.006 265.64 285.036 266.45 287.616 268.07C290.256 269.63 292.296 271.82 293.736 274.64C295.176 277.4 295.896 280.64 295.896 284.36V311H284.556V285.26C284.556 281.9 283.716 279.38 282.036 277.7C280.416 276.02 278.076 275.18 275.016 275.18C271.536 275.18 268.836 276.35 266.916 278.69C264.996 280.97 264.036 284.18 264.036 288.32V311H252.696Z" fill="black"/>
<path d="M306 234H324V311H306V234Z" fill="#268AFF"/>
<rect x="306" y="178" width="18" height="18" rx="9" fill="black"/>
</svg>
